<?xml version="1.0" standalone="no"?>
<!DOCTYPE svg PUBLIC "-//W3C//DTD SVG 20010904//EN"
 "http://www.w3.org/TR/2001/REC-SVG-20010904/DTD/svg10.dtd">
<svg version="1.0" xmlns="http://www.w3.org/2000/svg"
 width="700.000000pt" height="700.000000pt" viewBox="0 0 700.000000 700.000000"
 preserveAspectRatio="xMidYMid meet">
<metadata>
Created by potrace 1.14, written by Peter Selinger 2001-2017
</metadata>
<g transform="translate(0.000000,700.000000) scale(0.100000,-0.100000)"
fill="#000000" stroke="none">
<path d="M3435 6660 c-43 -17 -75 -73 -156 -265 -134 -321 -355 -752 -522
-1015 -192 -305 -321 -484 -614 -855 -35 -44 -67 -84 -71 -90 -22 -28 -133
-189 -173 -250 -170 -260 -328 -579 -423 -852 -35 -103 -90 -302 -101 -365 -6
-37 -16 -94 -21 -120 -27 -153 -26 -575 2 -713 3 -11 7 -36 10 -55 57 -360
215 -711 453 -1005 53 -65 250 -253 322 -307 271 -204 615 -353 933 -404 21
-3 46 -7 55 -9 9 -1 48 -6 86 -10 39 -4 79 -9 90 -11 26 -5 364 -5 390 0 11 2
54 7 95 11 373 35 796 206 1095 443 91 72 267 249 330 332 27 36 52 67 55 70
15 11 148 241 182 311 98 207 154 402 203 704 4 22 8 139 10 260 3 172 -1 248
-15 350 -27 194 -70 377 -122 515 -11 30 -21 60 -23 65 -1 6 -5 19 -9 30 -5
11 -14 37 -22 57 -21 58 -51 123 -114 253 -130 267 -279 502 -484 765 -49 63
-103 133 -120 155 -17 22 -34 42 -37 45 -3 3 -25 32 -50 65 -24 33 -47 62 -50
65 -12 10 -186 256 -271 385 -165 251 -292 474 -437 765 -79 160 -228 493
-257 575 -12 35 -54 84 -84 100 -31 16 -102 19 -135 5z"/>
</g>
</svg>
